<?xml version="1.0" encoding="utf-8"?>
<!-- Generator: Adobe Illustrator 19.2.1, SVG Export Plug-In . SVG Version: 6.00 Build 0)  -->
<svg version="1.1" id="Layer_1" xmlns="http://www.w3.org/2000/svg" xmlns:xlink="http://www.w3.org/1999/xlink" x="0px" y="0px"
	 viewBox="0 0 59.9 48" style="enable-background:new 0 0 59.9 48;" xml:space="preserve">
<style type="text/css">
	.st0{fill:#F39208;}
	.st1{fill:#010202;}
</style>
<rect id="Base" x="0" class="st0" width="59.9" height="48"/>
<g id="Stripes">
	<polygon class="st1" points="22.9,0 0,22.9 0,27.4 27.4,0 	"/>
	<polygon class="st1" points="34.9,0 0,34.9 0,39.4 39.3,0 	"/>
	<polygon class="st1" points="46.8,0 0,46.9 0,48 3.4,48 51.3,0 	"/>
	<polygon class="st1" points="0,0 0,3.4 3.4,0 	"/>
	<polygon class="st1" points="10.9,0 0,10.9 0,15.4 15.4,0 	"/>
	<polygon class="st1" points="59.9,22.9 34.9,48 39.3,48 59.9,27.4 	"/>
	<polygon class="st1" points="59.9,46.9 58.8,48 59.9,48 	"/>
	<polygon class="st1" points="59.9,34.9 46.8,48 51.3,48 59.9,39.4 	"/>
	<polygon class="st1" points="59.9,10.9 22.9,48 27.4,48 59.9,15.4 	"/>
	<polygon class="st1" points="59.9,0 58.8,0 10.9,48 15.4,48 59.9,3.4 	"/>
</g>
</svg>
